<?xml version="1.0" encoding="UTF-8"?>
<svg xmlns="http://www.w3.org/2000/svg" xmlns:xlink="http://www.w3.org/1999/xlink" width="375pt" height="374.999991pt" viewBox="0 0 375 374.999991" version="1.2">
<defs>
<clipPath id="clip1">
  <path d="M 52 152 L 68 152 L 68 169 L 52 169 Z M 52 152 "/>
</clipPath>
<clipPath id="clip2">
  <path d="M 59.925781 147.886719 L 72.652344 160.617188 L 59.925781 173.34375 L 47.199219 160.617188 Z M 59.925781 147.886719 "/>
</clipPath>
<clipPath id="clip3">
  <path d="M 59.925781 147.886719 L 72.652344 160.617188 L 59.925781 173.34375 L 47.199219 160.617188 Z M 59.925781 147.886719 "/>
</clipPath>
<clipPath id="clip4">
  <path d="M 179 51 L 196 51 L 196 69 L 179 69 Z M 179 51 "/>
</clipPath>
<clipPath id="clip5">
  <path d="M 187.5 46.574219 L 201.285156 60.363281 L 187.5 74.152344 L 173.710938 60.363281 Z M 187.5 46.574219 "/>
</clipPath>
<clipPath id="clip6">
  <path d="M 187.5 46.574219 L 201.285156 60.363281 L 187.5 74.152344 L 173.710938 60.363281 Z M 187.5 46.574219 "/>
</clipPath>
<clipPath id="clip7">
  <path d="M 298 219 L 315 219 L 315 235 L 298 235 Z M 298 219 "/>
</clipPath>
<clipPath id="clip8">
  <path d="M 306.597656 214.167969 L 319.328125 226.894531 L 306.597656 239.621094 L 293.871094 226.894531 Z M 306.597656 214.167969 "/>
</clipPath>
<clipPath id="clip9">
  <path d="M 306.597656 214.167969 L 319.328125 226.894531 L 306.597656 239.621094 L 293.871094 226.894531 Z M 306.597656 214.167969 "/>
</clipPath>
<clipPath id="clip10">
  <path d="M 179 302 L 196 302 L 196 319 L 179 319 Z M 179 302 "/>
</clipPath>
<clipPath id="clip11">
  <path d="M 187.496094 297.800781 L 200.226562 310.53125 L 187.496094 323.257812 L 174.769531 310.53125 Z M 187.496094 297.800781 "/>
</clipPath>
<clipPath id="clip12">
  <path d="M 187.496094 297.800781 L 200.226562 310.53125 L 187.496094 323.257812 L 174.769531 310.53125 Z M 187.496094 297.800781 "/>
</clipPath>
</defs>
<g id="surface1">
<path style=" stroke:none;fill-rule:nonzero;fill:rgb(100%,100%,92.939758%);fill-opacity:1;" d="M 240.695312 185.550781 L 240.703125 185.550781 Z M 236.640625 173.695312 C 233.640625 173.695312 228.816406 182.425781 227.824219 185.503906 C 227.046875 187.910156 226.585938 190.652344 226.472656 193.53125 C 231.097656 190.589844 235.515625 187.710938 239.628906 184.949219 C 239.902344 178.46875 238.847656 174.085938 236.90625 173.71875 C 236.820312 173.703125 236.730469 173.695312 236.640625 173.695312 Z M 225.359375 196.628906 C 225.179688 196.628906 225 196.585938 224.835938 196.496094 C 224.488281 196.308594 224.269531 195.945312 224.261719 195.550781 C 224.199219 191.710938 224.710938 188.003906 225.738281 184.832031 C 226.296875 183.101562 231.886719 170.554688 237.3125 171.570312 C 241.800781 172.414062 242.042969 180.726562 241.789062 185.609375 C 241.769531 185.953125 241.589844 186.265625 241.304688 186.460938 C 236.546875 189.660156 231.375 193.023438 225.941406 196.460938 C 225.765625 196.570312 225.558594 196.628906 225.359375 196.628906 "/>
<path style=" stroke:none;fill-rule:nonzero;fill:rgb(100%,100%,92.939758%);fill-opacity:1;" d="M 133.792969 227.605469 C 136.726562 227.605469 139.855469 228.628906 143.230469 231.273438 C 144.273438 232.085938 145.292969 232.976562 146.277344 233.835938 C 147.238281 234.671875 148.152344 235.46875 149.054688 236.175781 C 159.722656 231.199219 170.753906 225.648438 181.871094 219.65625 C 181.464844 217.875 181.167969 215.773438 180.851562 213.5625 C 180.066406 208.035156 179.085938 201.15625 176.144531 199.964844 C 172.929688 198.65625 168.25 202.566406 166.386719 204.308594 C 165.726562 204.921875 164.722656 206.050781 163.558594 207.359375 C 158.949219 212.550781 151.984375 220.394531 146.726562 219.199219 C 144.574219 218.710938 143.011719 216.832031 142.089844 213.617188 C 141.121094 210.257812 142.355469 206.691406 143.546875 203.242188 C 144.710938 199.875 145.914062 196.394531 144.980469 193.269531 C 144.328125 191.082031 143.316406 189.734375 141.964844 189.269531 C 140.050781 188.609375 137.175781 189.585938 133.65625 192.085938 C 126.351562 197.265625 122.703125 205.988281 119.175781 214.421875 C 117.628906 218.121094 116.035156 221.933594 114.144531 225.421875 C 115.867188 228.332031 117.789062 231.179688 119.871094 233.914062 C 124.074219 230.777344 128.632812 227.605469 133.792969 227.605469 Z M 148.917969 238.542969 C 148.6875 238.542969 148.460938 238.46875 148.269531 238.328125 C 147.121094 237.476562 145.960938 236.464844 144.835938 235.484375 C 143.875 234.644531 142.882812 233.777344 141.882812 232.996094 C 134.078125 226.878906 128.277344 230.339844 120.324219 236.3125 C 119.847656 236.671875 119.171875 236.582031 118.804688 236.113281 C 116.277344 232.875 113.96875 229.46875 111.941406 225.988281 C 111.746094 225.65625 111.742188 225.242188 111.929688 224.90625 C 113.894531 221.378906 115.550781 217.414062 117.15625 213.578125 C 120.800781 204.859375 124.574219 195.839844 132.390625 190.304688 C 136.566406 187.332031 140.03125 186.285156 142.679688 187.203125 C 144.738281 187.910156 146.214844 189.742188 147.078125 192.644531 C 148.214844 196.441406 146.890625 200.265625 145.613281 203.957031 C 144.484375 207.230469 143.417969 210.316406 144.191406 213.007812 C 144.878906 215.402344 145.894531 216.765625 147.210938 217.0625 C 151.203125 217.980469 158.175781 210.121094 161.921875 205.90625 C 163.171875 204.5 164.160156 203.390625 164.894531 202.707031 C 167.589844 200.1875 172.738281 196.21875 176.964844 197.933594 C 181.078125 199.605469 182.0625 206.542969 183.019531 213.253906 C 183.375 215.753906 183.714844 218.121094 184.191406 219.941406 C 184.316406 220.433594 184.09375 220.941406 183.652344 221.179688 C 172.042969 227.460938 160.511719 233.265625 149.378906 238.441406 C 149.234375 238.507812 149.074219 238.542969 148.917969 238.542969 "/>
<path style=" stroke:none;fill-rule:nonzero;fill:rgb(100%,100%,92.939758%);fill-opacity:1;" d="M 105.472656 205.25 C 105.964844 206.976562 106.5 208.660156 107.070312 210.25 C 108.636719 214.710938 110.582031 219.046875 112.859375 223.167969 C 114.425781 220.105469 115.8125 216.792969 117.15625 213.578125 C 120.800781 204.859375 124.574219 195.839844 132.390625 190.304688 C 136.566406 187.332031 140.03125 186.285156 142.679688 187.203125 C 144.738281 187.910156 146.214844 189.742188 147.078125 192.644531 C 148.214844 196.441406 146.890625 200.265625 145.613281 203.957031 C 144.484375 207.230469 143.417969 210.316406 144.191406 213.007812 C 144.878906 215.402344 145.894531 216.765625 147.210938 217.0625 C 151.203125 217.980469 158.175781 210.125 161.921875 205.90625 C 163.171875 204.5 164.160156 203.390625 164.894531 202.707031 C 167.589844 200.1875 172.738281 196.21875 176.964844 197.933594 C 181.078125 199.605469 182.0625 206.542969 183.019531 213.253906 C 183.292969 215.167969 183.550781 217 183.875 218.574219 C 188.992188 215.792969 194.234375 212.863281 199.480469 209.847656 C 199.800781 203.792969 200.601562 196.746094 203.761719 189.800781 C 209.890625 176.335938 222.550781 167.019531 231.539062 161.183594 C 237.902344 157.050781 247.191406 154.523438 251.875 157.992188 C 254.78125 160.144531 255.445312 164.066406 253.84375 169.652344 C 253.195312 171.902344 251.914062 174.410156 250.5625 177.074219 C 250.46875 177.257812 250.375 177.449219 250.277344 177.636719 C 258.25 172.027344 265.585938 166.550781 272.121094 161.324219 C 269.039062 148.542969 262.945312 136.457031 254.464844 126.332031 C 253.273438 124.90625 252.023438 123.503906 250.75 122.164062 C 249.375 120.730469 247.980469 119.367188 246.609375 118.117188 C 245.300781 116.90625 243.917969 115.714844 242.5 114.578125 C 241.167969 113.488281 239.785156 112.4375 238.375 111.433594 C 238.324219 113.28125 238.316406 115.054688 238.316406 116.496094 C 238.324219 118.730469 238.371094 120.957031 238.417969 123.113281 C 238.492188 126.714844 238.5625 130.117188 238.449219 133.042969 C 238.417969 134.3125 238.332031 135.523438 238.199219 136.640625 C 237.75 140.351562 235.195312 151.417969 229.476562 153.582031 C 227.117188 154.46875 224.632812 153.773438 222.089844 151.507812 C 220.039062 149.683594 219.484375 146.695312 218.992188 144.058594 C 218.820312 143.148438 218.664062 142.289062 218.453125 141.503906 C 217.777344 138.957031 216.785156 137.734375 213.507812 138.585938 C 210.152344 139.457031 207.75 142.761719 206.160156 148.691406 C 205.519531 151.09375 205.101562 153.574219 204.769531 155.566406 C 204.695312 156.007812 204.625 156.429688 204.554688 156.824219 C 204.417969 157.625 204.289062 158.519531 204.152344 159.464844 C 203.253906 165.769531 202.023438 174.40625 194.851562 176.257812 C 192.675781 176.816406 190.523438 176.480469 188.621094 175.285156 C 185.160156 173.105469 183.199219 168.648438 182.523438 165.207031 C 182.1875 163.535156 182.070312 161.863281 182.15625 160.101562 C 182.4375 154.601562 184.789062 149.632812 187.0625 144.832031 C 187.824219 143.21875 188.613281 141.550781 189.296875 139.910156 C 191.027344 135.753906 192.585938 130.753906 191.007812 125.183594 C 189.992188 121.578125 188.058594 118.195312 186.195312 114.929688 C 183.824219 110.789062 181.375 106.507812 180.601562 101.550781 C 180.328125 99.839844 180.226562 97.988281 180.296875 95.800781 C 166.886719 97.046875 153.84375 101.480469 142.449219 108.660156 C 142.507812 108.882812 142.566406 109.105469 142.621094 109.324219 C 143.714844 113.5 144.65625 117.105469 150.300781 118.304688 C 153.21875 118.933594 156.40625 118.578125 159.492188 118.238281 C 161.351562 118.035156 163.277344 117.824219 165.144531 117.824219 C 165.15625 117.824219 165.167969 117.824219 165.183594 117.824219 C 170.703125 117.832031 171.175781 118.074219 173.570312 122.117188 C 178.039062 129.628906 175.953125 139.308594 167.238281 151.765625 C 165.957031 153.59375 164.464844 155.367188 162.796875 157.042969 C 156.289062 163.644531 147.421875 168.75 139.625 173.011719 C 136.804688 174.550781 133.691406 175.867188 129.824219 177.140625 C 126.710938 178.175781 123.492188 179.054688 120.378906 179.90625 C 114.257812 181.574219 107.933594 183.300781 102.308594 186.265625 C 102.445312 188.882812 102.710938 191.519531 103.097656 194.109375 C 103.625 197.828125 104.417969 201.550781 105.457031 205.183594 C 105.464844 205.203125 105.46875 205.226562 105.472656 205.25 Z M 112.886719 226.535156 C 112.5 226.535156 112.136719 226.328125 111.941406 225.988281 C 109.167969 221.242188 106.839844 216.191406 105.007812 210.980469 C 104.417969 209.332031 103.863281 207.585938 103.351562 205.789062 C 103.347656 205.769531 103.339844 205.746094 103.335938 205.722656 C 102.277344 202.015625 101.46875 198.214844 100.933594 194.425781 C 100.5 191.542969 100.214844 188.59375 100.089844 185.675781 C 100.070312 185.257812 100.292969 184.867188 100.660156 184.667969 C 106.660156 181.378906 113.339844 179.558594 119.800781 177.792969 C 122.886719 176.953125 126.078125 176.078125 129.132812 175.066406 C 129.132812 175.066406 129.136719 175.0625 129.136719 175.0625 C 132.875 173.832031 135.871094 172.566406 138.570312 171.089844 C 146.234375 166.902344 154.9375 161.898438 161.242188 155.503906 C 162.824219 153.910156 164.238281 152.234375 165.445312 150.507812 C 173.617188 138.832031 175.667969 129.929688 171.722656 123.289062 C 169.785156 120.019531 169.785156 120.019531 165.179688 120.011719 C 163.410156 119.992188 161.628906 120.207031 159.730469 120.417969 C 156.472656 120.773438 153.105469 121.144531 149.84375 120.445312 C 142.878906 118.964844 141.617188 114.136719 140.503906 109.878906 C 140.382812 109.410156 140.257812 108.933594 140.128906 108.464844 C 140 108.003906 140.1875 107.511719 140.589844 107.253906 C 152.796875 99.394531 166.890625 94.644531 181.359375 93.515625 C 181.675781 93.488281 181.984375 93.601562 182.207031 93.824219 C 182.4375 94.042969 182.554688 94.351562 182.535156 94.667969 C 182.390625 97.253906 182.460938 99.335938 182.761719 101.214844 C 183.476562 105.769531 185.71875 109.691406 188.09375 113.84375 C 190.027344 117.222656 192.023438 120.722656 193.113281 124.585938 C 194.875 130.804688 193.195312 136.246094 191.320312 140.753906 C 190.613281 142.4375 189.8125 144.128906 189.039062 145.765625 C 186.859375 150.378906 184.601562 155.144531 184.339844 160.207031 C 184.265625 161.789062 184.371094 163.285156 184.671875 164.777344 C 185.234375 167.640625 186.910156 171.621094 189.789062 173.429688 C 191.1875 174.3125 192.703125 174.550781 194.304688 174.136719 C 200.0625 172.652344 201.175781 164.847656 201.988281 159.152344 C 202.125 158.183594 202.253906 157.269531 202.398438 156.449219 C 202.464844 156.058594 202.539062 155.640625 202.609375 155.207031 C 202.949219 153.164062 203.375 150.628906 204.046875 148.125 C 205.859375 141.363281 208.773438 137.554688 212.957031 136.46875 C 218.339844 135.070312 219.878906 138.351562 220.570312 140.941406 C 220.796875 141.804688 220.972656 142.746094 221.144531 143.65625 C 221.589844 146.058594 222.054688 148.542969 223.542969 149.871094 C 225.460938 151.578125 227.148438 152.121094 228.703125 151.53125 C 233.015625 149.902344 235.535156 140.445312 236.023438 136.378906 C 236.148438 135.328125 236.230469 134.183594 236.261719 132.972656 C 236.375 130.097656 236.304688 126.726562 236.230469 123.160156 C 236.183594 120.996094 236.136719 118.757812 236.125 116.5 C 236.125 114.519531 236.144531 111.921875 236.261719 109.339844 C 236.285156 108.945312 236.511719 108.59375 236.863281 108.414062 C 237.21875 108.238281 237.640625 108.265625 237.96875 108.484375 C 240 109.855469 241.988281 111.332031 243.878906 112.875 C 245.332031 114.039062 246.75 115.261719 248.09375 116.503906 C 249.496094 117.78125 250.921875 119.179688 252.335938 120.652344 C 253.644531 122.03125 254.925781 123.464844 256.144531 124.925781 C 264.988281 135.492188 271.304688 148.140625 274.414062 161.5 C 274.511719 161.90625 274.363281 162.335938 274.03125 162.601562 C 266.390625 168.734375 257.65625 175.210938 248.0625 181.847656 C 247.660156 182.128906 247.117188 182.105469 246.738281 181.789062 C 246.363281 181.472656 246.238281 180.945312 246.445312 180.496094 C 247.125 179 247.882812 177.515625 248.613281 176.082031 C 249.917969 173.515625 251.148438 171.09375 251.738281 169.042969 C 253.0625 164.429688 252.671875 161.304688 250.574219 159.75 C 246.871094 157.011719 238.429688 159.316406 232.734375 163.023438 C 223.972656 168.707031 211.644531 177.765625 205.753906 190.707031 C 202.644531 197.542969 201.925781 204.574219 201.636719 210.550781 C 201.621094 210.925781 201.414062 211.261719 201.089844 211.449219 C 195.222656 214.828125 189.355469 218.101562 183.652344 221.183594 C 183.355469 221.339844 183 221.359375 182.691406 221.222656 C 182.386719 221.089844 182.15625 220.824219 182.070312 220.496094 C 181.5625 218.550781 181.214844 216.128906 180.851562 213.5625 C 180.066406 208.035156 179.085938 201.15625 176.144531 199.964844 C 172.929688 198.65625 168.25 202.570312 166.386719 204.308594 C 165.726562 204.921875 164.722656 206.050781 163.558594 207.359375 C 158.949219 212.550781 151.984375 220.394531 146.726562 219.199219 C 144.574219 218.710938 143.011719 216.832031 142.089844 213.617188 C 141.121094 210.257812 142.355469 206.691406 143.546875 203.242188 C 144.710938 199.875 145.914062 196.394531 144.980469 193.269531 C 144.328125 191.082031 143.316406 189.734375 141.964844 189.269531 C 140.050781 188.609375 137.175781 189.585938 133.65625 192.085938 C 126.351562 197.265625 122.703125 205.988281 119.175781 214.421875 C 117.546875 218.3125 115.863281 222.339844 113.84375 225.96875 C 113.652344 226.316406 113.292969 226.527344 112.898438 226.535156 C 112.894531 226.535156 112.890625 226.535156 112.886719 226.535156 "/>
<path style=" stroke:none;fill-rule:nonzero;fill:rgb(100%,100%,92.939758%);fill-opacity:1;" d="M 101.195312 196.167969 C 37.628906 240.105469 0.453125 278.941406 8.566406 293.007812 C 16.941406 307.507812 73.671875 292.898438 146.523438 257.480469 C 163.648438 249.15625 181.296875 239.875 198.980469 229.890625 C 201.925781 228.234375 204.882812 226.539062 207.855469 224.832031 C 208.195312 224.632812 208.53125 224.441406 208.867188 224.242188 C 209.179688 224.0625 209.488281 223.882812 209.804688 223.703125 C 224.742188 215.03125 239.320312 206.078125 253.132812 197.097656 C 260.570312 192.265625 267.921875 187.335938 274.976562 182.4375 C 337.785156 138.875 374.578125 100.253906 366.542969 86.332031 C 362.78125 79.824219 348.726562 79.007812 326.957031 84.027344 C 305.355469 89.003906 277.128906 99.359375 245.234375 113.984375 C 246.214844 114.808594 247.171875 115.652344 248.09375 116.503906 C 249.496094 117.78125 250.921875 119.179688 252.335938 120.652344 C 253.464844 121.84375 254.574219 123.074219 255.640625 124.332031 C 273.351562 117.617188 302.996094 108.203125 308.597656 117.914062 C 314.4375 128.03125 289.449219 150.253906 274.03125 162.601562 C 266.390625 168.734375 257.65625 175.210938 248.0625 181.847656 C 245.789062 183.425781 243.515625 184.976562 241.304688 186.460938 C 236.546875 189.660156 231.375 193.023438 225.941406 196.460938 C 218.035156 201.449219 209.832031 206.398438 201.558594 211.175781 C 201.496094 211.214844 201.40625 211.265625 201.316406 211.316406 C 201.25 211.351562 201.179688 211.394531 201.117188 211.433594 C 195.222656 214.828125 189.355469 218.101562 183.652344 221.183594 C 172.042969 227.460938 160.511719 233.265625 149.378906 238.441406 C 142.644531 241.570312 136.082031 244.453125 129.878906 247.003906 C 113.324219 253.8125 98.957031 258.433594 88.332031 260.367188 C 76.773438 262.46875 69.6875 261.417969 67.269531 257.242188 C 64.65625 252.703125 66.070312 240.574219 104.746094 210.238281 C 104.253906 208.8125 103.785156 207.316406 103.351562 205.789062 C 103.347656 205.769531 103.339844 205.746094 103.335938 205.722656 C 102.441406 202.585938 101.722656 199.375 101.195312 196.167969 Z M 24.582031 300.738281 C 15.398438 300.738281 9.25 298.570312 6.671875 294.105469 C 2.140625 286.25 9.128906 272.328125 26.878906 253.839844 C 43.910156 236.105469 69.675781 215.195312 101.394531 193.371094 C 101.707031 193.15625 102.109375 193.117188 102.453125 193.269531 C 102.800781 193.421875 103.042969 193.742188 103.097656 194.117188 C 103.625 197.828125 104.417969 201.550781 105.457031 205.183594 C 105.464844 205.203125 105.46875 205.226562 105.472656 205.25 C 105.964844 206.976562 106.5 208.660156 107.070312 210.25 C 107.226562 210.695312 107.085938 211.191406 106.710938 211.480469 C 79.796875 232.515625 65.40625 249.628906 69.167969 256.148438 C 72.207031 261.402344 89.53125 261.230469 129.046875 244.976562 C 135.21875 242.441406 141.75 239.574219 148.457031 236.453125 C 159.546875 231.300781 171.039062 225.515625 182.609375 219.257812 C 188.296875 216.183594 194.144531 212.921875 199.996094 209.550781 C 200.058594 209.515625 200.148438 209.464844 200.238281 209.414062 C 200.304688 209.371094 200.371094 209.335938 200.441406 209.296875 C 208.714844 204.519531 216.890625 199.582031 224.773438 194.605469 C 230.1875 191.183594 235.34375 187.832031 240.085938 184.640625 C 242.285156 183.164062 244.550781 181.617188 246.820312 180.050781 C 256.367188 173.4375 265.0625 166.992188 272.664062 160.890625 C 309.605469 131.304688 308.058594 121.351562 306.703125 119.007812 C 305.390625 116.730469 297.832031 110.558594 255.699219 126.652344 C 255.257812 126.816406 254.765625 126.691406 254.464844 126.332031 C 253.273438 124.90625 252.023438 123.503906 250.75 122.164062 C 249.375 120.730469 247.980469 119.367188 246.609375 118.117188 C 245.300781 116.90625 243.917969 115.714844 242.5 114.578125 C 242.207031 114.339844 242.054688 113.964844 242.101562 113.589844 C 242.148438 113.214844 242.382812 112.890625 242.726562 112.730469 C 296.773438 87.792969 358.179688 67.476562 368.4375 85.238281 C 372.976562 93.097656 366.398438 106.410156 348.894531 124.804688 C 332.355469 142.183594 307.226562 162.734375 276.222656 184.238281 C 269.148438 189.144531 261.78125 194.089844 254.328125 198.933594 C 240.484375 207.933594 225.875 216.90625 210.898438 225.597656 L 209.96875 226.136719 C 209.625 226.335938 209.289062 226.535156 208.941406 226.726562 C 205.96875 228.441406 203.007812 230.136719 200.058594 231.800781 C 182.332031 241.800781 164.644531 251.105469 147.480469 259.449219 C 92.453125 286.203125 48.351562 300.738281 24.582031 300.738281 "/>
<path style=" stroke:none;fill-rule:nonzero;fill:rgb(100%,100%,92.939758%);fill-opacity:1;" d="M 248.230469 218.472656 L 248.238281 218.472656 Z M 184.019531 267.667969 C 185.46875 267.738281 186.921875 267.773438 188.351562 267.773438 C 196.507812 267.773438 204.578125 266.636719 212.335938 264.386719 C 219.148438 254.539062 227.871094 245.539062 234.015625 239.699219 C 243.511719 230.667969 255.167969 222.671875 266.875 217.152344 C 267.582031 215.59375 268.242188 214.003906 268.847656 212.410156 C 265.964844 213.453125 263.046875 214.445312 260.203125 215.410156 C 256.394531 216.699219 252.460938 218.039062 248.617188 219.496094 C 240.148438 222.710938 233.320312 230.738281 227.296875 237.828125 C 226.636719 238.605469 225.980469 239.371094 225.339844 240.121094 C 224.148438 241.503906 213.527344 253.605469 207.175781 251.75 C 205.035156 251.121094 203.707031 249.109375 203.234375 245.769531 C 202.609375 241.335938 204.476562 237.261719 206.28125 233.328125 C 207.261719 231.191406 208.269531 229 208.84375 226.785156 C 206.0625 228.386719 203.292969 229.976562 200.53125 231.53125 C 200.222656 233.792969 199.824219 235.867188 199.316406 237.84375 C 196.953125 247.175781 193.839844 257.730469 186.773438 264.933594 C 185.824219 265.902344 184.914062 266.808594 184.019531 267.667969 Z M 188.351562 269.964844 C 186.039062 269.964844 183.683594 269.871094 181.351562 269.691406 C 180.917969 269.65625 180.542969 269.367188 180.402344 268.957031 C 180.257812 268.542969 180.371094 268.089844 180.695312 267.792969 C 182.148438 266.453125 183.628906 265.015625 185.210938 263.398438 C 191.894531 256.589844 194.902344 246.359375 197.195312 237.304688 C 197.71875 235.25 198.125 233.09375 198.433594 230.703125 C 198.480469 230.363281 198.679688 230.0625 198.984375 229.890625 C 201.925781 228.234375 204.882812 226.539062 207.855469 224.832031 C 208.195312 224.632812 208.53125 224.441406 208.867188 224.242188 C 209.179688 224.0625 209.488281 223.882812 209.804688 223.703125 C 210.164062 223.496094 210.601562 223.507812 210.945312 223.734375 C 211.292969 223.957031 211.480469 224.355469 211.4375 224.765625 C 211.089844 228.097656 209.65625 231.222656 208.273438 234.238281 C 206.519531 238.058594 204.863281 241.664062 205.398438 245.464844 C 205.742188 247.875 206.546875 249.285156 207.789062 249.648438 C 211.554688 250.746094 219.539062 243.511719 223.679688 238.691406 C 224.320312 237.949219 224.96875 237.183594 225.625 236.410156 C 231.824219 229.121094 238.847656 220.859375 247.84375 217.449219 C 251.71875 215.976562 255.675781 214.632812 259.5 213.335938 C 263.058594 212.128906 266.734375 210.878906 270.300781 209.542969 C 270.699219 209.394531 271.148438 209.488281 271.453125 209.785156 C 271.753906 210.082031 271.859375 210.527344 271.71875 210.929688 C 270.84375 213.445312 269.824219 215.972656 268.699219 218.429688 C 268.589844 218.664062 268.402344 218.855469 268.164062 218.96875 C 256.542969 224.390625 244.953125 232.316406 235.527344 241.28125 C 229.386719 247.117188 220.65625 256.128906 213.921875 265.949219 C 213.78125 266.15625 213.570312 266.304688 213.328125 266.378906 C 205.253906 268.757812 196.847656 269.964844 188.351562 269.964844 "/>
<path style=" stroke:none;fill-rule:nonzero;fill:rgb(100%,100%,92.939758%);fill-opacity:1;" d="M 232.136719 162.105469 L 232.144531 162.105469 Z M 246.074219 158.550781 C 241.976562 158.550781 236.695312 160.445312 232.734375 163.023438 C 232.734375 163.023438 232.734375 163.023438 232.730469 163.023438 C 223.972656 168.707031 211.644531 177.765625 205.753906 190.707031 C 202.984375 196.789062 202.117188 203.023438 201.753906 208.535156 C 209.398438 204.097656 216.953125 199.53125 224.257812 194.933594 C 224.257812 191.316406 224.769531 187.835938 225.738281 184.832031 C 226.296875 183.101562 231.886719 170.554688 237.3125 171.570312 C 241.191406 172.296875 241.898438 178.597656 241.855469 183.449219 C 243.414062 182.394531 244.992188 181.3125 246.570312 180.222656 C 247.21875 178.820312 247.925781 177.429688 248.613281 176.082031 C 249.917969 173.515625 251.148438 171.09375 251.738281 169.042969 C 253.0625 164.429688 252.671875 161.304688 250.574219 159.75 C 249.445312 158.914062 247.875 158.550781 246.074219 158.550781 Z M 200.546875 211.59375 C 200.351562 211.59375 200.15625 211.542969 199.988281 211.441406 C 199.636719 211.234375 199.429688 210.851562 199.449219 210.445312 C 199.75 204.261719 200.496094 196.972656 203.761719 189.800781 C 209.890625 176.335938 222.550781 167.019531 231.539062 161.183594 L 231.539062 161.1875 C 240.0625 155.644531 248.378906 155.402344 251.875 157.992188 C 254.78125 160.144531 255.445312 164.066406 253.84375 169.652344 C 253.195312 171.902344 251.914062 174.410156 250.5625 177.074219 C 249.84375 178.488281 249.097656 179.953125 248.4375 181.402344 C 248.355469 181.582031 248.226562 181.738281 248.0625 181.847656 C 245.789062 183.425781 243.515625 184.976562 241.304688 186.460938 C 240.960938 186.691406 240.515625 186.707031 240.15625 186.503906 C 239.796875 186.296875 239.582031 185.90625 239.605469 185.496094 C 239.957031 178.714844 238.898438 174.09375 236.90625 173.71875 C 233.914062 173.160156 228.847656 182.332031 227.824219 185.503906 C 226.867188 188.453125 226.394531 191.917969 226.453125 195.515625 C 226.457031 195.898438 226.265625 196.253906 225.941406 196.460938 C 218.035156 201.449219 209.832031 206.398438 201.558594 211.175781 C 201.496094 211.214844 201.40625 211.265625 201.316406 211.316406 C 201.25 211.351562 201.179688 211.394531 201.117188 211.433594 C 200.941406 211.542969 200.742188 211.59375 200.546875 211.59375 "/>
<path style=" stroke:none;fill-rule:nonzero;fill:rgb(100%,100%,92.939758%);fill-opacity:1;" d="M 104.542969 161.535156 C 103.449219 166.085938 102.734375 170.75 102.40625 175.445312 C 103.0625 174.847656 103.714844 174.253906 104.375 173.671875 C 112.058594 166.871094 118.671875 163.644531 127.210938 162.542969 C 128.519531 162.375 129.804688 162.234375 131.078125 162.097656 C 137.867188 161.371094 143.730469 160.746094 148.976562 155.933594 C 153.636719 151.652344 158.925781 144.734375 158.5 139.328125 C 158.304688 136.933594 157.429688 135.414062 155.820312 134.675781 C 152.660156 133.222656 146.648438 134.625 138.433594 138.722656 C 131.847656 142.003906 125.484375 146.246094 123.039062 148.03125 C 121.074219 149.464844 119.089844 151.085938 117.171875 152.644531 C 113.203125 155.882812 109.101562 159.226562 104.542969 161.535156 Z M 101.164062 179.15625 C 101.007812 179.15625 100.851562 179.121094 100.703125 179.050781 C 100.304688 178.867188 100.058594 178.460938 100.074219 178.019531 C 100.300781 172.113281 101.128906 166.222656 102.535156 160.519531 C 102.613281 160.203125 102.828125 159.9375 103.121094 159.796875 C 107.636719 157.597656 111.78125 154.21875 115.792969 150.949219 C 117.730469 149.367188 119.734375 147.730469 121.75 146.261719 C 122 146.078125 146.796875 128.125 156.738281 132.683594 C 159.09375 133.769531 160.421875 135.941406 160.679688 139.152344 C 161.3125 147.140625 152.277344 155.875 150.457031 157.542969 C 144.679688 162.84375 138.183594 163.539062 131.3125 164.277344 C 130.054688 164.410156 128.785156 164.546875 127.492188 164.710938 C 118.070312 165.933594 112.015625 169.832031 105.824219 175.3125 C 104.898438 176.128906 103.980469 176.972656 103.0625 177.8125 L 101.902344 178.871094 C 101.699219 179.054688 101.433594 179.15625 101.164062 179.15625 "/>
<path style=" stroke:none;fill-rule:nonzero;fill:rgb(100%,100%,92.939758%);fill-opacity:1;" d="M 182.492188 95.625 C 182.414062 97.777344 182.503906 99.570312 182.761719 101.214844 C 183.476562 105.769531 185.71875 109.691406 188.09375 113.84375 C 190.027344 117.222656 192.023438 120.722656 193.113281 124.585938 C 194.875 130.804688 193.195312 136.246094 191.320312 140.753906 C 190.613281 142.4375 189.8125 144.128906 189.039062 145.765625 C 186.859375 150.378906 184.601562 155.144531 184.339844 160.207031 C 184.265625 161.789062 184.371094 163.285156 184.671875 164.777344 C 185.234375 167.640625 186.910156 171.621094 189.789062 173.429688 C 191.1875 174.3125 192.703125 174.550781 194.304688 174.136719 C 200.0625 172.652344 201.175781 164.847656 201.988281 159.152344 C 202.125 158.183594 202.253906 157.269531 202.398438 156.449219 C 202.464844 156.058594 202.539062 155.640625 202.609375 155.207031 C 202.949219 153.164062 203.375 150.628906 204.046875 148.125 C 205.859375 141.363281 208.773438 137.554688 212.957031 136.46875 C 218.339844 135.070312 219.878906 138.351562 220.570312 140.941406 C 220.796875 141.804688 220.972656 142.746094 221.144531 143.65625 C 221.589844 146.058594 222.054688 148.542969 223.542969 149.871094 C 225.460938 151.578125 227.148438 152.121094 228.703125 151.53125 C 233.015625 149.902344 235.535156 140.445312 236.023438 136.378906 C 236.148438 135.328125 236.230469 134.183594 236.261719 132.972656 C 236.375 130.097656 236.304688 126.726562 236.230469 123.160156 C 236.183594 120.996094 236.136719 118.757812 236.125 116.5 C 236.125 114.675781 236.140625 112.332031 236.238281 109.957031 C 230.777344 106.292969 224.917969 103.273438 218.804688 100.96875 C 217.910156 101.976562 217.222656 103.207031 216.800781 104.558594 C 216.332031 106.054688 216.132812 108.253906 215.921875 110.578125 C 215.410156 116.238281 214.832031 122.652344 210.246094 125.152344 C 208.160156 126.285156 206.335938 126.402344 204.824219 125.5 C 201.230469 123.351562 200.792969 116.226562 200.835938 109.539062 L 200.839844 108.90625 C 200.839844 107.640625 200.902344 106.171875 200.96875 104.609375 C 201.070312 102.054688 201.1875 99.191406 201.078125 96.371094 C 195.007812 95.460938 188.769531 95.203125 182.492188 95.625 Z M 192.8125 176.519531 C 191.347656 176.519531 189.925781 176.105469 188.621094 175.285156 C 185.160156 173.105469 183.199219 168.648438 182.523438 165.207031 C 182.1875 163.535156 182.070312 161.863281 182.15625 160.101562 C 182.4375 154.601562 184.789062 149.632812 187.0625 144.832031 C 187.824219 143.21875 188.613281 141.550781 189.296875 139.910156 C 191.027344 135.753906 192.585938 130.753906 191.007812 125.183594 C 189.992188 121.578125 188.058594 118.195312 186.195312 114.929688 C 183.824219 110.789062 181.375 106.507812 180.601562 101.550781 C 180.277344 99.519531 180.195312 97.292969 180.351562 94.542969 C 180.382812 93.996094 180.8125 93.558594 181.359375 93.515625 C 188.417969 92.960938 195.480469 93.25 202.304688 94.347656 C 202.8125 94.429688 203.191406 94.851562 203.222656 95.363281 C 203.40625 98.566406 203.273438 101.828125 203.152344 104.703125 C 203.089844 106.234375 203.03125 107.6875 203.03125 108.910156 L 203.023438 109.554688 C 203.003906 112.589844 202.945312 121.824219 205.945312 123.621094 C 206.246094 123.796875 207.15625 124.339844 209.199219 123.226562 C 212.757812 121.289062 213.28125 115.496094 213.742188 110.382812 C 213.960938 107.9375 214.171875 105.625 214.710938 103.902344 C 215.3125 101.980469 216.363281 100.25 217.746094 98.90625 C 218.050781 98.609375 218.492188 98.515625 218.886719 98.664062 C 225.601562 101.128906 232.023438 104.433594 237.972656 108.488281 C 238.289062 108.703125 238.46875 109.0625 238.449219 109.445312 C 238.332031 111.980469 238.316406 114.542969 238.316406 116.496094 C 238.324219 118.730469 238.371094 120.957031 238.417969 123.113281 C 238.492188 126.714844 238.5625 130.117188 238.449219 133.042969 C 238.417969 134.3125 238.332031 135.523438 238.199219 136.640625 C 237.75 140.351562 235.195312 151.417969 229.476562 153.582031 C 227.117188 154.46875 224.632812 153.773438 222.089844 151.507812 C 220.039062 149.683594 219.484375 146.695312 218.992188 144.058594 C 218.820312 143.148438 218.664062 142.289062 218.453125 141.503906 C 217.777344 138.957031 216.785156 137.734375 213.507812 138.585938 C 210.152344 139.457031 207.75 142.761719 206.160156 148.691406 C 205.519531 151.09375 205.101562 153.574219 204.769531 155.566406 C 204.695312 156.007812 204.625 156.429688 204.554688 156.824219 C 204.417969 157.625 204.289062 158.519531 204.152344 159.464844 C 203.253906 165.769531 202.023438 174.40625 194.851562 176.257812 C 194.164062 176.433594 193.484375 176.519531 192.8125 176.519531 "/>
<path style=" stroke:none;fill-rule:nonzero;fill:rgb(100%,100%,92.939758%);fill-opacity:1;" d="M 274.4375 185.472656 C 268.847656 189.332031 263.089844 193.203125 257.261719 197.023438 C 261.535156 196.796875 265.984375 195.464844 268.582031 194.558594 C 270.476562 193.894531 272.195312 193.277344 273.808594 192.675781 C 274.121094 190.324219 274.332031 187.914062 274.4375 185.472656 Z M 256.078125 199.246094 C 255.234375 199.246094 254.40625 199.203125 253.601562 199.105469 C 253.140625 199.046875 252.765625 198.714844 252.660156 198.265625 C 252.558594 197.816406 252.746094 197.347656 253.132812 197.097656 C 260.570312 192.265625 267.921875 187.335938 274.976562 182.4375 C 275.316406 182.203125 275.757812 182.183594 276.117188 182.375 C 276.480469 182.570312 276.707031 182.949219 276.695312 183.363281 C 276.625 186.84375 276.355469 190.300781 275.886719 193.625 C 275.832031 194.023438 275.566406 194.359375 275.1875 194.5 C 273.382812 195.175781 271.460938 195.871094 269.304688 196.625 C 265.703125 197.882812 260.726562 199.246094 256.078125 199.246094 "/>
<path style=" stroke:none;fill-rule:nonzero;fill:rgb(100%,100%,92.939758%);fill-opacity:1;" d="M 102.242188 178.558594 C 102.203125 179.570312 102.1875 180.59375 102.1875 181.605469 C 102.1875 182.332031 102.195312 183.082031 102.214844 183.851562 C 107.800781 181.066406 113.894531 179.40625 119.800781 177.792969 C 122.886719 176.953125 126.078125 176.078125 129.132812 175.066406 C 132.875 173.832031 135.871094 172.566406 138.570312 171.089844 C 146.234375 166.902344 154.9375 161.898438 161.242188 155.503906 C 161.242188 155.503906 161.242188 155.503906 161.246094 155.5 C 162.824219 153.910156 164.238281 152.234375 165.445312 150.507812 C 173.617188 138.832031 175.667969 129.929688 171.722656 123.289062 C 169.785156 120.019531 169.785156 120.019531 165.179688 120.011719 C 163.410156 119.992188 161.628906 120.207031 159.730469 120.417969 C 156.472656 120.773438 153.105469 121.144531 149.84375 120.445312 C 142.898438 118.96875 141.625 114.164062 140.515625 109.917969 C 123.191406 121.492188 110.773438 138.675781 105.285156 158.640625 C 108.976562 156.503906 112.429688 153.691406 115.792969 150.949219 C 117.730469 149.367188 119.734375 147.730469 121.75 146.261719 C 122 146.078125 146.796875 128.125 156.738281 132.683594 C 159.09375 133.769531 160.421875 135.941406 160.679688 139.152344 C 161.3125 147.140625 152.277344 155.875 150.457031 157.542969 C 144.679688 162.84375 138.183594 163.539062 131.3125 164.277344 C 130.054688 164.410156 128.785156 164.546875 127.492188 164.710938 C 118.070312 165.933594 112.015625 169.832031 105.824219 175.3125 C 104.898438 176.128906 103.980469 176.972656 103.0625 177.8125 Z M 101.183594 186.722656 C 100.996094 186.722656 100.816406 186.675781 100.648438 186.582031 C 100.320312 186.394531 100.109375 186.054688 100.089844 185.675781 C 100.027344 184.265625 99.996094 182.894531 99.996094 181.605469 C 99.996094 180.414062 100.023438 179.203125 100.074219 178.011719 C 100.085938 177.722656 100.214844 177.449219 100.429688 177.25 L 101.582031 176.199219 C 102.511719 175.347656 103.441406 174.496094 104.375 173.671875 C 112.058594 166.871094 118.671875 163.644531 127.210938 162.542969 C 128.519531 162.375 129.804688 162.234375 131.078125 162.097656 C 137.867188 161.371094 143.730469 160.746094 148.976562 155.933594 C 153.636719 151.652344 158.925781 144.734375 158.5 139.328125 C 158.304688 136.933594 157.429688 135.414062 155.820312 134.675781 C 152.660156 133.222656 146.648438 134.625 138.433594 138.722656 C 131.847656 142.003906 125.484375 146.246094 123.039062 148.03125 C 121.074219 149.464844 119.089844 151.085938 117.171875 152.644531 C 113.070312 155.992188 108.824219 159.453125 104.078125 161.765625 C 103.695312 161.949219 103.242188 161.898438 102.914062 161.632812 C 102.582031 161.367188 102.433594 160.933594 102.535156 160.523438 C 107.917969 138.5 121.433594 119.582031 140.589844 107.253906 C 140.882812 107.0625 141.246094 107.027344 141.574219 107.148438 C 141.898438 107.273438 142.144531 107.542969 142.238281 107.878906 C 142.371094 108.359375 142.496094 108.84375 142.621094 109.324219 C 143.714844 113.5 144.65625 117.105469 150.300781 118.304688 C 153.21875 118.933594 156.40625 118.578125 159.492188 118.238281 C 161.367188 118.035156 163.289062 117.792969 165.183594 117.824219 C 170.703125 117.832031 171.175781 118.074219 173.570312 122.117188 C 178.039062 129.628906 175.953125 139.308594 167.238281 151.765625 C 165.957031 153.589844 164.46875 155.367188 162.800781 157.042969 C 156.289062 163.644531 147.421875 168.75 139.625 173.011719 C 136.804688 174.550781 133.691406 175.867188 129.824219 177.144531 C 126.710938 178.175781 123.492188 179.054688 120.378906 179.90625 C 114.039062 181.636719 107.480469 183.421875 101.710938 186.585938 C 101.542969 186.675781 101.363281 186.722656 101.183594 186.722656 "/>
<path style=" stroke:none;fill-rule:nonzero;fill:rgb(100%,100%,92.939758%);fill-opacity:1;" d="M 121.226562 235.640625 C 123.828125 238.863281 126.671875 241.90625 129.691406 244.710938 C 135.175781 242.445312 140.933594 239.925781 146.84375 237.203125 C 146.167969 236.644531 145.5 236.0625 144.835938 235.484375 C 143.875 234.644531 142.882812 233.777344 141.882812 232.996094 C 134.375 227.117188 128.722656 230.089844 121.226562 235.640625 Z M 129.460938 247.082031 C 129.195312 247.082031 128.929688 246.984375 128.722656 246.796875 C 125.152344 243.535156 121.8125 239.941406 118.808594 236.117188 C 118.625 235.882812 118.542969 235.589844 118.582031 235.296875 C 118.617188 235.007812 118.773438 234.742188 119.007812 234.5625 C 125.808594 229.457031 133.519531 223.664062 143.230469 231.273438 C 144.273438 232.085938 145.292969 232.976562 146.277344 233.835938 C 147.417969 234.828125 148.496094 235.769531 149.570312 236.566406 C 149.882812 236.800781 150.046875 237.175781 150.007812 237.558594 C 149.96875 237.941406 149.730469 238.277344 149.378906 238.441406 C 142.644531 241.570312 136.082031 244.453125 129.878906 247.003906 C 129.742188 247.058594 129.605469 247.082031 129.460938 247.082031 "/>
<path style=" stroke:none;fill-rule:nonzero;fill:rgb(100%,100%,92.939758%);fill-opacity:1;" d="M 105.523438 212.414062 C 79.375 233.019531 65.464844 249.726562 69.167969 256.148438 C 72.164062 261.328125 89.070312 261.234375 127.464844 245.625 C 124.363281 242.679688 121.457031 239.488281 118.808594 236.117188 C 118.804688 236.113281 118.804688 236.113281 118.804688 236.113281 C 116.277344 232.875 113.96875 229.46875 111.941406 225.988281 C 109.425781 221.675781 107.269531 217.117188 105.523438 212.414062 Z M 78.191406 261.382812 C 72.957031 261.382812 68.984375 260.207031 67.269531 257.242188 C 64.640625 252.679688 66.089844 240.445312 105.367188 209.757812 C 105.644531 209.539062 106.007812 209.464844 106.347656 209.570312 C 106.683594 209.664062 106.953125 209.921875 107.070312 210.257812 C 108.855469 215.335938 111.128906 220.257812 113.832031 224.886719 C 115.8125 228.285156 118.0625 231.609375 120.527344 234.765625 C 123.460938 238.492188 126.714844 242 130.199219 245.183594 C 130.476562 245.433594 130.605469 245.8125 130.539062 246.179688 C 130.476562 246.550781 130.226562 246.859375 129.878906 247.003906 C 117.597656 252.054688 92.914062 261.382812 78.191406 261.382812 "/>
<path style=" stroke:none;fill-rule:nonzero;fill:rgb(100%,100%,92.939758%);fill-opacity:1;" d="M 149.429688 258.5 C 159.304688 263.519531 169.925781 266.535156 181.046875 267.46875 C 182.386719 266.222656 183.757812 264.886719 185.210938 263.398438 C 191.894531 256.589844 194.902344 246.359375 197.195312 237.304688 C 197.554688 235.898438 197.859375 234.441406 198.113281 232.894531 C 181.710938 242.105469 165.351562 250.707031 149.429688 258.5 Z M 181.4375 269.691406 C 181.40625 269.691406 181.378906 269.691406 181.351562 269.691406 C 169.035156 268.722656 157.300781 265.269531 146.484375 259.425781 C 146.121094 259.230469 145.898438 258.851562 145.910156 258.4375 C 145.917969 258.027344 146.15625 257.660156 146.523438 257.480469 C 163.648438 249.15625 181.296875 239.875 198.980469 229.890625 C 199.34375 229.691406 199.785156 229.707031 200.132812 229.9375 C 200.472656 230.167969 200.660156 230.578125 200.605469 230.988281 C 200.285156 233.464844 199.863281 235.707031 199.316406 237.84375 C 196.953125 247.175781 193.839844 257.730469 186.773438 264.933594 C 185.164062 266.578125 183.660156 268.039062 182.175781 269.40625 C 181.976562 269.589844 181.710938 269.691406 181.4375 269.691406 "/>
<path style=" stroke:none;fill-rule:nonzero;fill:rgb(100%,100%,92.939758%);fill-opacity:1;" d="M 257.121094 126.113281 C 265.089844 135.980469 270.894531 147.570312 274.003906 159.816406 C 309.566406 131.066406 308.042969 121.324219 306.703125 119.007812 C 305.40625 116.757812 298.003906 110.699219 257.121094 126.113281 Z M 273.347656 162.84375 C 273.226562 162.84375 273.105469 162.824219 272.988281 162.78125 C 272.636719 162.65625 272.367188 162.359375 272.28125 161.996094 C 269.25 148.96875 263.089844 136.636719 254.464844 126.332031 C 254.238281 126.058594 254.15625 125.695312 254.246094 125.355469 C 254.335938 125.011719 254.585938 124.730469 254.914062 124.605469 C 272.527344 117.878906 302.917969 108.070312 308.597656 117.914062 C 314.4375 128.03125 289.449219 150.253906 274.03125 162.601562 C 273.835938 162.757812 273.59375 162.84375 273.347656 162.84375 "/>
<path style=" stroke:none;fill-rule:nonzero;fill:rgb(100%,100%,92.939758%);fill-opacity:1;" d="M 268.941406 195.59375 L 268.949219 195.59375 Z M 211.367188 225.324219 C 210.933594 228.449219 209.582031 231.390625 208.273438 234.238281 C 206.519531 238.058594 204.863281 241.664062 205.398438 245.464844 C 205.742188 247.875 206.546875 249.285156 207.789062 249.648438 C 211.554688 250.746094 219.539062 243.511719 223.679688 238.691406 C 224.320312 237.949219 224.96875 237.183594 225.625 236.410156 C 231.824219 229.121094 238.847656 220.859375 247.84375 217.449219 C 251.71875 215.976562 255.675781 214.632812 259.5 213.335938 C 262.898438 212.183594 266.40625 210.992188 269.824219 209.722656 C 271.464844 204.976562 272.6875 200.082031 273.457031 195.140625 C 272.160156 195.617188 270.785156 196.105469 269.304688 196.625 C 265.160156 198.074219 259.1875 199.664062 254 199.148438 C 240.398438 207.980469 226.0625 216.785156 211.367188 225.324219 Z M 208.589844 251.941406 C 208.097656 251.941406 207.628906 251.878906 207.175781 251.75 C 205.035156 251.121094 203.707031 249.109375 203.234375 245.769531 C 202.609375 241.335938 204.476562 237.261719 206.28125 233.328125 C 207.59375 230.46875 208.949219 227.515625 209.261719 224.535156 C 209.296875 224.191406 209.5 223.882812 209.800781 223.703125 C 224.742188 215.03125 239.320312 206.078125 253.132812 197.097656 C 253.347656 196.960938 253.605469 196.898438 253.863281 196.929688 C 258.988281 197.546875 265.28125 195.714844 268.578125 194.5625 C 270.71875 193.808594 272.632812 193.121094 274.421875 192.449219 C 274.78125 192.316406 275.1875 192.378906 275.488281 192.617188 C 275.789062 192.855469 275.941406 193.238281 275.890625 193.617188 C 275.105469 199.492188 273.699219 205.320312 271.71875 210.929688 C 271.613281 211.238281 271.375 211.480469 271.074219 211.59375 C 267.472656 212.945312 263.777344 214.199219 260.203125 215.410156 C 256.394531 216.699219 252.460938 218.039062 248.617188 219.496094 C 240.148438 222.710938 233.320312 230.738281 227.296875 237.828125 C 226.636719 238.605469 225.980469 239.371094 225.339844 240.121094 C 224.234375 241.40625 214.984375 251.941406 208.589844 251.941406 "/>
<path style=" stroke:none;fill-rule:nonzero;fill:rgb(100%,100%,92.939758%);fill-opacity:1;" d="M 265.359375 220.328125 C 254.6875 225.675781 244.195312 233.039062 235.527344 241.28125 C 229.941406 246.589844 222.210938 254.527344 215.792969 263.308594 C 237.308594 256.097656 255.117188 240.652344 265.359375 220.328125 Z M 213.019531 266.421875 C 212.671875 266.421875 212.34375 266.257812 212.132812 265.96875 C 211.859375 265.597656 211.851562 265.09375 212.113281 264.707031 C 218.957031 254.734375 227.804688 245.601562 234.015625 239.699219 C 243.613281 230.570312 255.410156 222.503906 267.242188 216.984375 C 267.65625 216.789062 268.148438 216.875 268.476562 217.195312 C 268.800781 217.523438 268.890625 218.011719 268.699219 218.429688 C 258.007812 241.699219 237.828125 259.175781 213.328125 266.378906 C 213.222656 266.410156 213.121094 266.421875 213.019531 266.421875 "/>
<path style=" stroke:none;fill-rule:nonzero;fill:rgb(100%,100%,92.939758%);fill-opacity:1;" d="M 203.28125 96.726562 C 203.367188 99.484375 203.253906 102.234375 203.152344 104.703125 C 203.089844 106.234375 203.03125 107.6875 203.03125 108.910156 L 203.023438 109.554688 C 203.003906 112.589844 202.945312 121.824219 205.945312 123.621094 C 206.246094 123.796875 207.15625 124.339844 209.199219 123.226562 C 212.757812 121.289062 213.28125 115.496094 213.742188 110.382812 C 213.960938 107.9375 214.171875 105.625 214.710938 103.902344 C 215.140625 102.542969 215.789062 101.277344 216.625 100.175781 C 212.285156 98.671875 207.8125 97.515625 203.28125 96.726562 Z M 207.015625 126.101562 C 206.226562 126.101562 205.492188 125.902344 204.824219 125.5 C 201.230469 123.351562 200.792969 116.226562 200.835938 109.539062 L 200.839844 108.90625 C 200.839844 107.640625 200.902344 106.171875 200.96875 104.609375 C 201.082031 101.789062 201.214844 98.589844 201.035156 95.488281 C 201.019531 95.160156 201.148438 94.835938 201.394531 94.613281 C 201.640625 94.394531 201.972656 94.296875 202.296875 94.347656 C 207.949219 95.234375 213.53125 96.6875 218.886719 98.664062 C 219.242188 98.792969 219.503906 99.09375 219.582031 99.464844 C 219.660156 99.832031 219.542969 100.214844 219.273438 100.476562 C 218.148438 101.566406 217.292969 102.976562 216.800781 104.558594 C 216.332031 106.054688 216.132812 108.253906 215.921875 110.578125 C 215.410156 116.238281 214.832031 122.652344 210.246094 125.152344 C 209.085938 125.785156 208.003906 126.101562 207.015625 126.101562 "/>
<path style=" stroke:none;fill-rule:nonzero;fill:rgb(100%,100%,92.939758%);fill-opacity:1;" d="M 251.542969 122.503906 C 251.164062 122.503906 250.796875 122.308594 250.59375 121.957031 C 250.292969 121.433594 250.472656 120.765625 250.996094 120.460938 C 253.179688 119.199219 254.890625 118.339844 256.542969 117.679688 C 257.644531 117.238281 258.769531 116.824219 259.855469 116.425781 C 261.808594 115.707031 263.828125 114.964844 265.71875 114.050781 C 268.214844 112.835938 270.9375 111.566406 273.890625 110.550781 C 274.460938 110.355469 275.082031 110.660156 275.28125 111.234375 C 275.476562 111.804688 275.171875 112.425781 274.601562 112.625 C 271.761719 113.597656 269.113281 114.832031 266.675781 116.019531 C 264.683594 116.980469 262.613281 117.742188 260.613281 118.480469 C 259.539062 118.875 258.429688 119.28125 257.355469 119.710938 C 255.804688 120.335938 254.179688 121.148438 252.089844 122.359375 C 251.917969 122.457031 251.730469 122.503906 251.542969 122.503906 "/>
<path style=" stroke:none;fill-rule:nonzero;fill:rgb(100%,100%,92.939758%);fill-opacity:1;" d="M 247.347656 118.402344 C 246.957031 118.402344 246.578125 118.195312 246.382812 117.824219 C 246.097656 117.292969 246.300781 116.628906 246.832031 116.34375 C 249.410156 114.960938 252.3125 113.636719 255.457031 112.398438 C 258.320312 111.277344 261.222656 110.089844 264.03125 108.941406 C 267.792969 107.398438 271.6875 105.808594 275.554688 104.34375 C 276.117188 104.128906 276.75 104.414062 276.964844 104.980469 C 277.179688 105.546875 276.894531 106.175781 276.328125 106.390625 C 272.488281 107.84375 268.609375 109.429688 264.859375 110.96875 C 262.046875 112.121094 259.132812 113.3125 256.257812 114.4375 C 253.191406 115.640625 250.371094 116.929688 247.863281 118.273438 C 247.699219 118.363281 247.523438 118.402344 247.347656 118.402344 "/>
<path style=" stroke:none;fill-rule:nonzero;fill:rgb(100%,100%,92.939758%);fill-opacity:1;" d="M 62.386719 242.621094 C 62.109375 242.621094 61.828125 242.511719 61.617188 242.296875 C 61.1875 241.871094 61.1875 241.175781 61.617188 240.75 C 64.214844 238.152344 66.886719 235.546875 69.476562 233.03125 C 71.5 231.0625 73.523438 229.089844 75.535156 227.101562 C 80.183594 222.507812 85.128906 218.46875 88.921875 215.464844 L 89.242188 215.203125 C 93.90625 211.496094 98.730469 207.660156 103.835938 204.554688 C 104.347656 204.242188 105.023438 204.402344 105.339844 204.921875 C 105.652344 205.4375 105.488281 206.113281 104.972656 206.425781 C 99.984375 209.460938 95.21875 213.25 90.605469 216.921875 L 90.28125 217.175781 C 86.535156 220.148438 81.644531 224.140625 77.074219 228.660156 C 75.058594 230.652344 73.027344 232.625 71 234.601562 C 68.421875 237.113281 65.75 239.710938 63.164062 242.296875 C 62.949219 242.511719 62.667969 242.621094 62.386719 242.621094 "/>
<path style=" stroke:none;fill-rule:nonzero;fill:rgb(100%,100%,92.939758%);fill-opacity:1;" d="M 19.496094 270.207031 C 15.496094 275.777344 9.046875 284.105469 12.566406 291.339844 C 15.609375 297.605469 23.53125 294.347656 28.359375 292.578125 C 29.671875 292.097656 29.105469 289.980469 27.777344 290.464844 C 23.84375 291.910156 16.273438 295.460938 14.226562 289.65625 C 13.082031 286.40625 14.40625 282.789062 15.886719 279.871094 C 17.421875 276.839844 19.40625 274.066406 21.386719 271.3125 C 22.210938 270.164062 20.3125 269.070312 19.496094 270.207031 "/>
<path style=" stroke:none;fill-rule:nonzero;fill:rgb(100%,100%,92.939758%);fill-opacity:1;" d="M 352.5 90.042969 C 354.132812 89.601562 356.085938 89.324219 357.585938 90.320312 C 359.097656 91.324219 359.503906 93.320312 359.429688 95.023438 C 359.289062 98.273438 357.402344 101.304688 355.527344 103.851562 C 351.492188 109.332031 346.136719 113.605469 341.265625 118.296875 C 340.25 119.277344 341.796875 120.820312 342.8125 119.84375 C 348.648438 114.226562 355.394531 109.070312 359.421875 101.882812 C 361.160156 98.777344 362.394531 94.945312 361.074219 91.449219 C 359.605469 87.550781 355.523438 86.957031 351.917969 87.929688 C 350.558594 88.296875 351.136719 90.410156 352.5 90.042969 "/>
<g clip-path="url(#clip1)" clip-rule="nonzero">
<g clip-path="url(#clip2)" clip-rule="nonzero">
<g clip-path="url(#clip3)" clip-rule="nonzero">
<path style=" stroke:none;fill-rule:nonzero;fill:rgb(94.119263%,89.408875%,46.269226%);fill-opacity:1;" d="M 67.554688 164.695312 C 66.027344 163.167969 64.496094 161.636719 62.964844 160.105469 C 62.964844 160.445312 62.964844 160.785156 62.964844 161.125 C 64.496094 159.59375 66.027344 158.066406 67.554688 156.535156 C 67.832031 156.257812 67.832031 155.796875 67.554688 155.519531 C 66.710938 154.675781 65.867188 153.828125 65.023438 152.984375 C 64.746094 152.707031 64.28125 152.707031 64.003906 152.984375 C 62.476562 154.515625 60.945312 156.046875 59.417969 157.574219 C 59.757812 157.574219 60.09375 157.574219 60.433594 157.574219 C 58.90625 156.046875 57.375 154.515625 55.847656 152.984375 C 55.566406 152.707031 55.105469 152.707031 54.828125 152.984375 C 53.984375 153.828125 53.140625 154.675781 52.296875 155.519531 C 52.019531 155.796875 52.019531 156.257812 52.296875 156.535156 C 53.824219 158.066406 55.355469 159.59375 56.886719 161.125 C 56.886719 160.785156 56.886719 160.445312 56.886719 160.105469 C 55.355469 161.636719 53.824219 163.167969 52.296875 164.695312 C 52.019531 164.972656 52.019531 165.4375 52.296875 165.714844 C 53.140625 166.558594 53.984375 167.402344 54.828125 168.246094 C 55.105469 168.523438 55.570312 168.523438 55.847656 168.246094 C 57.375 166.714844 58.90625 165.1875 60.433594 163.65625 C 60.09375 163.65625 59.757812 163.65625 59.417969 163.65625 C 60.945312 165.1875 62.476562 166.714844 64.003906 168.246094 C 64.28125 168.523438 64.746094 168.523438 65.023438 168.246094 C 65.867188 167.402344 66.710938 166.558594 67.554688 165.714844 C 68.210938 165.058594 67.195312 164.039062 66.539062 164.695312 C 65.695312 165.539062 64.847656 166.382812 64.003906 167.226562 C 64.34375 167.226562 64.683594 167.226562 65.023438 167.226562 C 63.492188 165.699219 61.964844 164.167969 60.433594 162.636719 C 60.15625 162.359375 59.695312 162.359375 59.417969 162.636719 C 57.886719 164.167969 56.355469 165.699219 54.828125 167.226562 C 55.167969 167.226562 55.507812 167.226562 55.847656 167.226562 C 55 166.382812 54.15625 165.539062 53.3125 164.695312 C 53.3125 165.035156 53.3125 165.375 53.3125 165.714844 C 54.84375 164.183594 56.375 162.65625 57.902344 161.125 C 58.179688 160.847656 58.179688 160.382812 57.902344 160.105469 C 56.375 158.578125 54.84375 157.046875 53.3125 155.519531 C 53.3125 155.855469 53.3125 156.195312 53.3125 156.535156 C 54.15625 155.691406 55 154.847656 55.847656 154.003906 C 55.507812 154.003906 55.167969 154.003906 54.828125 154.003906 C 56.355469 155.535156 57.886719 157.0625 59.417969 158.59375 C 59.695312 158.871094 60.15625 158.871094 60.433594 158.59375 C 61.964844 157.0625 63.492188 155.535156 65.023438 154.003906 C 64.683594 154.003906 64.34375 154.003906 64.003906 154.003906 C 64.847656 154.847656 65.691406 155.691406 66.539062 156.535156 C 66.539062 156.195312 66.539062 155.855469 66.539062 155.519531 C 65.007812 157.046875 63.476562 158.578125 61.949219 160.105469 C 61.671875 160.382812 61.671875 160.847656 61.949219 161.125 C 63.476562 162.65625 65.007812 164.183594 66.539062 165.714844 C 67.195312 166.371094 68.210938 165.351562 67.554688 164.695312 Z M 67.554688 164.695312 "/>
</g>
</g>
</g>
<g clip-path="url(#clip4)" clip-rule="nonzero">
<g clip-path="url(#clip5)" clip-rule="nonzero">
<g clip-path="url(#clip6)" clip-rule="nonzero">
<path style=" stroke:none;fill-rule:nonzero;fill:rgb(94.119263%,89.408875%,46.269226%);fill-opacity:1;" d="M 195.765625 64.785156 C 194.105469 63.128906 192.449219 61.46875 190.792969 59.8125 C 190.792969 60.179688 190.792969 60.546875 190.792969 60.914062 C 192.449219 59.257812 194.105469 57.601562 195.765625 55.945312 C 196.066406 55.644531 196.066406 55.140625 195.765625 54.839844 C 194.851562 53.925781 193.9375 53.011719 193.019531 52.097656 C 192.71875 51.796875 192.21875 51.796875 191.917969 52.097656 C 190.261719 53.757812 188.605469 55.414062 186.945312 57.070312 C 187.316406 57.070312 187.683594 57.070312 188.050781 57.070312 C 186.394531 55.414062 184.734375 53.757812 183.078125 52.097656 C 182.777344 51.796875 182.277344 51.796875 181.976562 52.097656 C 181.0625 53.011719 180.148438 53.925781 179.234375 54.839844 C 178.933594 55.140625 178.933594 55.644531 179.234375 55.945312 C 180.890625 57.601562 182.546875 59.257812 184.203125 60.914062 C 184.203125 60.546875 184.203125 60.179688 184.203125 59.8125 C 182.546875 61.46875 180.890625 63.128906 179.234375 64.785156 C 178.933594 65.085938 178.933594 65.585938 179.234375 65.886719 C 180.148438 66.800781 181.0625 67.714844 181.976562 68.628906 C 182.277344 68.929688 182.777344 68.929688 183.078125 68.628906 C 184.734375 66.972656 186.394531 65.316406 188.050781 63.660156 C 187.683594 63.660156 187.316406 63.660156 186.945312 63.660156 C 188.605469 65.316406 190.261719 66.972656 191.917969 68.628906 C 192.21875 68.929688 192.722656 68.929688 193.019531 68.628906 C 193.933594 67.714844 194.851562 66.800781 195.765625 65.886719 C 196.476562 65.175781 195.371094 64.074219 194.660156 64.785156 C 193.746094 65.699219 192.832031 66.613281 191.917969 67.527344 C 192.285156 67.527344 192.652344 67.527344 193.019531 67.527344 C 191.363281 65.871094 189.707031 64.210938 188.050781 62.554688 C 187.75 62.253906 187.246094 62.253906 186.945312 62.554688 C 185.289062 64.210938 183.632812 65.871094 181.976562 67.527344 C 182.34375 67.527344 182.710938 67.527344 183.078125 67.527344 C 182.164062 66.613281 181.25 65.699219 180.335938 64.785156 C 180.335938 65.152344 180.335938 65.519531 180.335938 65.886719 C 181.992188 64.230469 183.648438 62.574219 185.308594 60.917969 C 185.609375 60.617188 185.609375 60.113281 185.308594 59.8125 C 183.648438 58.15625 181.992188 56.5 180.335938 54.839844 C 180.335938 55.210938 180.335938 55.578125 180.335938 55.945312 C 181.25 55.03125 182.164062 54.117188 183.078125 53.203125 C 182.710938 53.203125 182.34375 53.203125 181.976562 53.203125 C 183.632812 54.859375 185.289062 56.515625 186.945312 58.171875 C 187.246094 58.472656 187.75 58.472656 188.050781 58.171875 C 189.707031 56.515625 191.363281 54.859375 193.019531 53.203125 C 192.652344 53.203125 192.285156 53.203125 191.917969 53.203125 C 192.832031 54.117188 193.746094 55.03125 194.660156 55.945312 C 194.660156 55.578125 194.660156 55.210938 194.660156 54.839844 C 193.003906 56.5 191.347656 58.15625 189.691406 59.8125 C 189.390625 60.113281 189.390625 60.617188 189.691406 60.917969 C 191.347656 62.574219 193.003906 64.230469 194.660156 65.886719 C 195.371094 66.597656 196.476562 65.496094 195.765625 64.785156 Z M 195.765625 64.785156 "/>
</g>
</g>
</g>
<g clip-path="url(#clip7)" clip-rule="nonzero">
<g clip-path="url(#clip8)" clip-rule="nonzero">
<g clip-path="url(#clip9)" clip-rule="nonzero">
<path style=" stroke:none;fill-rule:nonzero;fill:rgb(94.119263%,89.408875%,46.269226%);fill-opacity:1;" d="M 314.230469 230.972656 C 312.699219 229.445312 311.167969 227.914062 309.640625 226.386719 C 309.640625 226.722656 309.640625 227.0625 309.640625 227.402344 C 311.167969 225.875 312.699219 224.34375 314.230469 222.8125 C 314.507812 222.535156 314.507812 222.074219 314.230469 221.796875 C 313.386719 220.953125 312.542969 220.109375 311.695312 219.265625 C 311.417969 218.988281 310.957031 218.988281 310.679688 219.265625 C 309.148438 220.792969 307.621094 222.324219 306.089844 223.851562 C 306.429688 223.851562 306.769531 223.851562 307.109375 223.851562 C 305.578125 222.324219 304.050781 220.792969 302.519531 219.265625 C 302.242188 218.988281 301.777344 218.988281 301.5 219.265625 C 300.65625 220.109375 299.8125 220.953125 298.96875 221.796875 C 298.691406 222.074219 298.691406 222.535156 298.96875 222.8125 C 300.5 224.34375 302.027344 225.875 303.558594 227.402344 C 303.558594 227.0625 303.558594 226.722656 303.558594 226.386719 C 302.027344 227.914062 300.5 229.445312 298.96875 230.972656 C 298.691406 231.25 298.691406 231.714844 298.96875 231.992188 C 299.8125 232.835938 300.65625 233.679688 301.5 234.523438 C 301.777344 234.800781 302.242188 234.800781 302.519531 234.523438 C 304.050781 232.996094 305.578125 231.464844 307.109375 229.933594 C 306.769531 229.933594 306.429688 229.933594 306.089844 229.933594 C 307.621094 231.464844 309.148438 232.996094 310.679688 234.523438 C 310.957031 234.800781 311.417969 234.800781 311.695312 234.523438 C 312.539062 233.679688 313.386719 232.835938 314.230469 231.992188 C 314.886719 231.335938 313.867188 230.316406 313.210938 230.972656 C 312.367188 231.816406 311.523438 232.660156 310.679688 233.503906 C 311.019531 233.503906 311.359375 233.503906 311.695312 233.503906 C 310.167969 231.976562 308.636719 230.445312 307.109375 228.917969 C 306.832031 228.640625 306.367188 228.640625 306.089844 228.917969 C 304.558594 230.445312 303.03125 231.976562 301.5 233.503906 C 301.839844 233.503906 302.179688 233.503906 302.519531 233.503906 C 301.675781 232.660156 300.832031 231.816406 299.988281 230.972656 C 299.988281 231.3125 299.988281 231.652344 299.988281 231.992188 C 301.515625 230.460938 303.046875 228.933594 304.578125 227.402344 C 304.855469 227.125 304.855469 226.664062 304.578125 226.386719 C 303.046875 224.855469 301.515625 223.324219 299.988281 221.796875 C 299.988281 222.136719 299.988281 222.476562 299.988281 222.8125 C 300.832031 221.96875 301.675781 221.125 302.519531 220.28125 C 302.179688 220.28125 301.839844 220.28125 301.5 220.28125 C 303.03125 221.8125 304.558594 223.34375 306.089844 224.871094 C 306.367188 225.148438 306.832031 225.148438 307.109375 224.871094 C 308.636719 223.34375 310.167969 221.8125 311.695312 220.28125 C 311.359375 220.28125 311.019531 220.28125 310.679688 220.28125 C 311.523438 221.125 312.367188 221.96875 313.210938 222.8125 C 313.210938 222.476562 313.210938 222.136719 313.210938 221.796875 C 311.679688 223.324219 310.152344 224.855469 308.621094 226.386719 C 308.34375 226.664062 308.34375 227.125 308.621094 227.402344 C 310.152344 228.933594 311.679688 230.460938 313.210938 231.992188 C 313.867188 232.648438 314.886719 231.628906 314.230469 230.972656 Z M 314.230469 230.972656 "/>
</g>
</g>
</g>
<g clip-path="url(#clip10)" clip-rule="nonzero">
<g clip-path="url(#clip11)" clip-rule="nonzero">
<g clip-path="url(#clip12)" clip-rule="nonzero">
<path style=" stroke:none;fill-rule:nonzero;fill:rgb(94.119263%,89.408875%,46.269226%);fill-opacity:1;" d="M 195.128906 314.609375 C 193.597656 313.082031 192.066406 311.550781 190.539062 310.019531 C 190.539062 310.359375 190.539062 310.699219 190.539062 311.039062 C 192.066406 309.511719 193.597656 307.980469 195.128906 306.449219 C 195.40625 306.171875 195.40625 305.710938 195.128906 305.433594 C 194.285156 304.589844 193.441406 303.746094 192.59375 302.902344 C 192.316406 302.625 191.855469 302.625 191.578125 302.902344 C 190.046875 304.429688 188.519531 305.960938 186.988281 307.488281 C 187.328125 307.488281 187.667969 307.488281 188.007812 307.488281 C 186.476562 305.960938 184.949219 304.429688 183.417969 302.902344 C 183.140625 302.625 182.675781 302.625 182.398438 302.902344 C 181.554688 303.746094 180.710938 304.589844 179.867188 305.433594 C 179.589844 305.710938 179.589844 306.171875 179.867188 306.449219 C 181.398438 307.980469 182.925781 309.511719 184.457031 311.039062 C 184.457031 310.699219 184.457031 310.359375 184.457031 310.019531 C 182.925781 311.550781 181.398438 313.082031 179.867188 314.609375 C 179.589844 314.886719 179.589844 315.351562 179.867188 315.628906 C 180.710938 316.472656 181.554688 317.316406 182.398438 318.160156 C 182.675781 318.4375 183.140625 318.4375 183.417969 318.160156 C 184.949219 316.628906 186.476562 315.101562 188.007812 313.570312 C 187.667969 313.570312 187.328125 313.570312 186.988281 313.570312 C 188.519531 315.101562 190.046875 316.628906 191.578125 318.160156 C 191.855469 318.4375 192.316406 318.4375 192.59375 318.160156 C 193.4375 317.316406 194.285156 316.472656 195.128906 315.628906 C 195.785156 314.972656 194.765625 313.953125 194.109375 314.609375 C 193.265625 315.453125 192.421875 316.296875 191.578125 317.140625 C 191.917969 317.140625 192.257812 317.140625 192.59375 317.140625 C 191.066406 315.613281 189.535156 314.082031 188.007812 312.554688 C 187.730469 312.277344 187.265625 312.277344 186.988281 312.554688 C 185.457031 314.082031 183.929688 315.613281 182.398438 317.140625 C 182.738281 317.140625 183.078125 317.140625 183.417969 317.140625 C 182.574219 316.296875 181.730469 315.453125 180.886719 314.609375 C 180.886719 314.949219 180.886719 315.289062 180.886719 315.628906 C 182.414062 314.097656 183.945312 312.570312 185.476562 311.039062 C 185.753906 310.761719 185.753906 310.300781 185.476562 310.019531 C 183.945312 308.492188 182.414062 306.960938 180.886719 305.433594 C 180.886719 305.773438 180.886719 306.109375 180.886719 306.449219 C 181.730469 305.605469 182.574219 304.761719 183.417969 303.917969 C 183.078125 303.917969 182.738281 303.917969 182.398438 303.917969 C 183.929688 305.449219 185.457031 306.976562 186.988281 308.507812 C 187.265625 308.785156 187.730469 308.785156 188.007812 308.507812 C 189.535156 306.976562 191.066406 305.449219 192.59375 303.917969 C 192.257812 303.917969 191.917969 303.917969 191.578125 303.917969 C 192.421875 304.761719 193.265625 305.605469 194.109375 306.449219 C 194.109375 306.113281 194.109375 305.773438 194.109375 305.433594 C 192.578125 306.960938 191.050781 308.492188 189.519531 310.023438 C 189.242188 310.300781 189.242188 310.761719 189.519531 311.039062 C 191.050781 312.570312 192.578125 314.097656 194.109375 315.628906 C 194.765625 316.285156 195.785156 315.265625 195.128906 314.609375 Z M 195.128906 314.609375 "/>
</g>
</g>
</g>
</g>
</svg>
